M48
; DRILL file {KiCad 6.0.7-f9a2dced07~116~ubuntu20.04.1} date Sun 07 Aug 2022 22:42:25 BST
; FORMAT={-:-/ absolute / inch / decimal}
; #@! TF.CreationDate,2022-08-07T22:42:25+01:00
; #@! TF.GenerationSoftware,Kicad,Pcbnew,6.0.7-f9a2dced07~116~ubuntu20.04.1
; #@! TF.FileFunction,Plated,1,2,PTH
FMAT,2
INCH
; #@! TA.AperFunction,Plated,PTH,ComponentDrill
T1C0.0276
; #@! TA.AperFunction,Plated,PTH,ComponentDrill
T2C0.0315
; #@! TA.AperFunction,Plated,PTH,ComponentDrill
T3C0.0354
; #@! TA.AperFunction,Plated,PTH,ComponentDrill
T4C0.0433
; #@! TA.AperFunction,Plated,PTH,ComponentDrill
T5C0.0512
; #@! TA.AperFunction,Plated,PTH,ComponentDrill
T6C0.0669
%
G90
G05
T1
X4.985Y-2.75
X5.285Y-2.75
T2
X3.4453Y-3.285
X3.4453Y-3.76
X4.2327Y-3.285
X4.2327Y-3.76
X4.469Y-3.068
X4.469Y-3.668
X4.469Y-3.842
X4.769Y-3.842
T3
X3.7824Y-2.699
X3.7824Y-2.8998
X4.3808Y-2.699
X4.3808Y-2.8998
T4
X5.537Y-3.139
X5.537Y-3.239
X5.537Y-3.339
T5
X3.518Y-2.1091
X3.518Y-2.306
X4.066Y-2.196
X4.9518Y-2.196
X5.4936Y-2.1057
X5.6904Y-2.1057
T6
X4.889Y-3.0281
X4.889Y-3.225
X4.889Y-3.4219
T0
M30
