%TF.GenerationSoftware,KiCad,Pcbnew,6.0.7-f9a2dced07~116~ubuntu20.04.1*%
%TF.CreationDate,2022-08-07T22:42:36+01:00*%
%TF.ProjectId,MController,4d436f6e-7472-46f6-9c6c-65722e6b6963,rev?*%
%TF.SameCoordinates,Original*%
%TF.FileFunction,Legend,Top*%
%TF.FilePolarity,Positive*%
%FSLAX46Y46*%
G04 Gerber Fmt 4.6, Leading zero omitted, Abs format (unit mm)*
G04 Created by KiCad (PCBNEW 6.0.7-f9a2dced07~116~ubuntu20.04.1) date 2022-08-07 22:42:36*
%MOMM*%
%LPD*%
G01*
G04 APERTURE LIST*
%ADD10C,0.150000*%
%ADD11C,0.120000*%
G04 APERTURE END LIST*
D10*
%TO.C,R1*%
X130262333Y-68382380D02*
X129929000Y-67906190D01*
X129690904Y-68382380D02*
X129690904Y-67382380D01*
X130071857Y-67382380D01*
X130167095Y-67430000D01*
X130214714Y-67477619D01*
X130262333Y-67572857D01*
X130262333Y-67715714D01*
X130214714Y-67810952D01*
X130167095Y-67858571D01*
X130071857Y-67906190D01*
X129690904Y-67906190D01*
X131214714Y-68382380D02*
X130643285Y-68382380D01*
X130929000Y-68382380D02*
X130929000Y-67382380D01*
X130833761Y-67525238D01*
X130738523Y-67620476D01*
X130643285Y-67668095D01*
%TO.C,Q1*%
X137377419Y-82492838D02*
X137329800Y-82588076D01*
X137234561Y-82683314D01*
X137091704Y-82826171D01*
X137044085Y-82921409D01*
X137044085Y-83016647D01*
X137282180Y-82969028D02*
X137234561Y-83064266D01*
X137139323Y-83159504D01*
X136948847Y-83207123D01*
X136615514Y-83207123D01*
X136425038Y-83159504D01*
X136329800Y-83064266D01*
X136282180Y-82969028D01*
X136282180Y-82778552D01*
X136329800Y-82683314D01*
X136425038Y-82588076D01*
X136615514Y-82540457D01*
X136948847Y-82540457D01*
X137139323Y-82588076D01*
X137234561Y-82683314D01*
X137282180Y-82778552D01*
X137282180Y-82969028D01*
X137282180Y-81588076D02*
X137282180Y-82159504D01*
X137282180Y-81873790D02*
X136282180Y-81873790D01*
X136425038Y-81969028D01*
X136520276Y-82064266D01*
X136567895Y-82159504D01*
%TO.C,F1*%
X114193066Y-49706971D02*
X113859733Y-49706971D01*
X113859733Y-50230780D02*
X113859733Y-49230780D01*
X114335923Y-49230780D01*
X115240685Y-50230780D02*
X114669257Y-50230780D01*
X114954971Y-50230780D02*
X114954971Y-49230780D01*
X114859733Y-49373638D01*
X114764495Y-49468876D01*
X114669257Y-49516495D01*
%TO.C,R2*%
X111244980Y-85713866D02*
X110768790Y-86047200D01*
X111244980Y-86285295D02*
X110244980Y-86285295D01*
X110244980Y-85904342D01*
X110292600Y-85809104D01*
X110340219Y-85761485D01*
X110435457Y-85713866D01*
X110578314Y-85713866D01*
X110673552Y-85761485D01*
X110721171Y-85809104D01*
X110768790Y-85904342D01*
X110768790Y-86285295D01*
X110340219Y-85332914D02*
X110292600Y-85285295D01*
X110244980Y-85190057D01*
X110244980Y-84951961D01*
X110292600Y-84856723D01*
X110340219Y-84809104D01*
X110435457Y-84761485D01*
X110530695Y-84761485D01*
X110673552Y-84809104D01*
X111244980Y-85380533D01*
X111244980Y-84761485D01*
%TO.C,J3*%
X128532980Y-82248333D02*
X129247266Y-82248333D01*
X129390123Y-82295952D01*
X129485361Y-82391190D01*
X129532980Y-82534047D01*
X129532980Y-82629285D01*
X128532980Y-81867380D02*
X128532980Y-81248333D01*
X128913933Y-81581666D01*
X128913933Y-81438809D01*
X128961552Y-81343571D01*
X129009171Y-81295952D01*
X129104409Y-81248333D01*
X129342504Y-81248333D01*
X129437742Y-81295952D01*
X129485361Y-81343571D01*
X129532980Y-81438809D01*
X129532980Y-81724523D01*
X129485361Y-81819761D01*
X129437742Y-81867380D01*
%TO.C,J1*%
X141703466Y-49577180D02*
X141703466Y-50291466D01*
X141655847Y-50434323D01*
X141560609Y-50529561D01*
X141417752Y-50577180D01*
X141322514Y-50577180D01*
X142703466Y-50577180D02*
X142132038Y-50577180D01*
X142417752Y-50577180D02*
X142417752Y-49577180D01*
X142322514Y-49720038D01*
X142227276Y-49815276D01*
X142132038Y-49862895D01*
%TO.C,FL1*%
X92501471Y-74392595D02*
X92501471Y-74725928D01*
X93025280Y-74725928D02*
X92025280Y-74725928D01*
X92025280Y-74249738D01*
X93025280Y-73392595D02*
X93025280Y-73868785D01*
X92025280Y-73868785D01*
X93025280Y-72535452D02*
X93025280Y-73106880D01*
X93025280Y-72821166D02*
X92025280Y-72821166D01*
X92168138Y-72916404D01*
X92263376Y-73011642D01*
X92310995Y-73106880D01*
%TO.C,DIAC1*%
X116002038Y-95143580D02*
X116002038Y-94143580D01*
X116240133Y-94143580D01*
X116382990Y-94191200D01*
X116478228Y-94286438D01*
X116525847Y-94381676D01*
X116573466Y-94572152D01*
X116573466Y-94715009D01*
X116525847Y-94905485D01*
X116478228Y-95000723D01*
X116382990Y-95095961D01*
X116240133Y-95143580D01*
X116002038Y-95143580D01*
X117002038Y-95143580D02*
X117002038Y-94143580D01*
X117430609Y-94857866D02*
X117906800Y-94857866D01*
X117335371Y-95143580D02*
X117668704Y-94143580D01*
X118002038Y-95143580D01*
X118906800Y-95048342D02*
X118859180Y-95095961D01*
X118716323Y-95143580D01*
X118621085Y-95143580D01*
X118478228Y-95095961D01*
X118382990Y-95000723D01*
X118335371Y-94905485D01*
X118287752Y-94715009D01*
X118287752Y-94572152D01*
X118335371Y-94381676D01*
X118382990Y-94286438D01*
X118478228Y-94191200D01*
X118621085Y-94143580D01*
X118716323Y-94143580D01*
X118859180Y-94191200D01*
X118906800Y-94238819D01*
X119859180Y-95143580D02*
X119287752Y-95143580D01*
X119573466Y-95143580D02*
X119573466Y-94143580D01*
X119478228Y-94286438D01*
X119382990Y-94381676D01*
X119287752Y-94429295D01*
X113250695Y-96239180D02*
X113250695Y-95239180D01*
X113822123Y-96239180D02*
X113393552Y-95667752D01*
X113822123Y-95239180D02*
X113250695Y-95810609D01*
%TO.C,J2*%
X85449580Y-56405733D02*
X86163866Y-56405733D01*
X86306723Y-56453352D01*
X86401961Y-56548590D01*
X86449580Y-56691447D01*
X86449580Y-56786685D01*
X85544819Y-55977161D02*
X85497200Y-55929542D01*
X85449580Y-55834304D01*
X85449580Y-55596209D01*
X85497200Y-55500971D01*
X85544819Y-55453352D01*
X85640057Y-55405733D01*
X85735295Y-55405733D01*
X85878152Y-55453352D01*
X86449580Y-56024780D01*
X86449580Y-55405733D01*
%TO.C,C2*%
X104989333Y-97816942D02*
X104941714Y-97864561D01*
X104798857Y-97912180D01*
X104703619Y-97912180D01*
X104560761Y-97864561D01*
X104465523Y-97769323D01*
X104417904Y-97674085D01*
X104370285Y-97483609D01*
X104370285Y-97340752D01*
X104417904Y-97150276D01*
X104465523Y-97055038D01*
X104560761Y-96959800D01*
X104703619Y-96912180D01*
X104798857Y-96912180D01*
X104941714Y-96959800D01*
X104989333Y-97007419D01*
X105370285Y-97007419D02*
X105417904Y-96959800D01*
X105513142Y-96912180D01*
X105751238Y-96912180D01*
X105846476Y-96959800D01*
X105894095Y-97007419D01*
X105941714Y-97102657D01*
X105941714Y-97197895D01*
X105894095Y-97340752D01*
X105322666Y-97912180D01*
X105941714Y-97912180D01*
%TO.C,C1*%
X105217933Y-85751942D02*
X105170314Y-85799561D01*
X105027457Y-85847180D01*
X104932219Y-85847180D01*
X104789361Y-85799561D01*
X104694123Y-85704323D01*
X104646504Y-85609085D01*
X104598885Y-85418609D01*
X104598885Y-85275752D01*
X104646504Y-85085276D01*
X104694123Y-84990038D01*
X104789361Y-84894800D01*
X104932219Y-84847180D01*
X105027457Y-84847180D01*
X105170314Y-84894800D01*
X105217933Y-84942419D01*
X106170314Y-85847180D02*
X105598885Y-85847180D01*
X105884600Y-85847180D02*
X105884600Y-84847180D01*
X105789361Y-84990038D01*
X105694123Y-85085276D01*
X105598885Y-85132895D01*
D11*
%TO.C,R1*%
X127559000Y-69850000D02*
X128509000Y-69850000D01*
X128509000Y-70770000D02*
X132349000Y-70770000D01*
X132349000Y-68930000D02*
X128509000Y-68930000D01*
X128509000Y-68930000D02*
X128509000Y-70770000D01*
X132349000Y-70770000D02*
X132349000Y-68930000D01*
X133299000Y-69850000D02*
X132349000Y-69850000D01*
%TO.C,Q1*%
X139268800Y-77150600D02*
X139268800Y-87390600D01*
X143909800Y-80420600D02*
X142399800Y-80420600D01*
X143909800Y-77150600D02*
X139268800Y-77150600D01*
X143909800Y-84121600D02*
X142399800Y-84121600D01*
X143909800Y-87390600D02*
X139268800Y-87390600D01*
X143909800Y-77150600D02*
X143909800Y-87390600D01*
X142399800Y-77150600D02*
X142399800Y-87390600D01*
%TO.C,F1*%
X125886400Y-54028400D02*
X125886400Y-50868400D01*
X103166400Y-60688400D02*
X125886400Y-60688400D01*
X125886400Y-60688400D02*
X125886400Y-57528400D01*
X103166400Y-50868400D02*
X125886400Y-50868400D01*
X103166400Y-60688400D02*
X103166400Y-57528400D01*
X103166400Y-54028400D02*
X103166400Y-50868400D01*
%TO.C,R2*%
X113512600Y-78967200D02*
X113512600Y-80927200D01*
X115232600Y-80927200D02*
X111792600Y-80927200D01*
X111792600Y-90167200D02*
X115232600Y-90167200D01*
X115232600Y-90167200D02*
X115232600Y-80927200D01*
X113512600Y-92127200D02*
X113512600Y-90167200D01*
X111792600Y-80927200D02*
X111792600Y-90167200D01*
%TO.C,J3*%
X119270600Y-89525000D02*
X127990600Y-89525000D01*
X124180600Y-74105000D02*
X123880600Y-73505000D01*
X124480600Y-73505000D02*
X124180600Y-74105000D01*
X123880600Y-73505000D02*
X124480600Y-73505000D01*
X119270600Y-74305000D02*
X119270600Y-89525000D01*
X127990600Y-74305000D02*
X119270600Y-74305000D01*
X127990600Y-89525000D02*
X127990600Y-74305000D01*
%TO.C,J1*%
X146586800Y-52184800D02*
X146586800Y-57584800D01*
X137486800Y-52184800D02*
X138046800Y-52184800D01*
X136976800Y-51124800D02*
X147096800Y-51124800D01*
X141026800Y-52184800D02*
X141586800Y-52184800D01*
X136976800Y-61244800D02*
X147096800Y-61244800D01*
X136976800Y-57684800D02*
X147096800Y-57684800D01*
X142486800Y-52184800D02*
X142486800Y-57584800D01*
X136736800Y-59244800D02*
X136736800Y-61484800D01*
X137486800Y-52184800D02*
X137486800Y-57584800D01*
X136976800Y-51124800D02*
X136976800Y-61244800D01*
X147096800Y-51124800D02*
X147096800Y-61244800D01*
X141586800Y-52184800D02*
X141586800Y-57584800D01*
X137486800Y-57584800D02*
X141586800Y-57584800D01*
X142486800Y-57584800D02*
X146586800Y-57584800D01*
X142486800Y-52184800D02*
X143653800Y-52184800D01*
X145420800Y-52184800D02*
X146586800Y-52184800D01*
X136736800Y-61484800D02*
X138736800Y-61484800D01*
%TO.C,FL1*%
X94072900Y-76004500D02*
X97072900Y-76004500D01*
X94452900Y-66584500D02*
X112892900Y-66584500D01*
X94072900Y-76004500D02*
X94072900Y-75004500D01*
X112892900Y-66584500D02*
X112892900Y-75624500D01*
X94452900Y-75624500D02*
X94452900Y-66584500D01*
X112892900Y-75624500D02*
X94452900Y-75624500D01*
%TO.C,DIAC1*%
X120092600Y-97586800D02*
X119442600Y-97586800D01*
X114552600Y-97586800D02*
X115202600Y-97586800D01*
X115802600Y-96466800D02*
X115802600Y-98706800D01*
X115202600Y-96466800D02*
X115202600Y-98706800D01*
X116042600Y-96466800D02*
X116042600Y-98706800D01*
X115922600Y-96466800D02*
X115922600Y-98706800D01*
X119442600Y-96466800D02*
X115202600Y-96466800D01*
X115202600Y-98706800D02*
X119442600Y-98706800D01*
X119442600Y-98706800D02*
X119442600Y-96466800D01*
%TO.C,J2*%
X88057200Y-56522400D02*
X93457200Y-56522400D01*
X97357200Y-61372400D02*
X97357200Y-59372400D01*
X86997200Y-51012400D02*
X97117200Y-51012400D01*
X88057200Y-55622400D02*
X88057200Y-54455400D01*
X93457200Y-60622400D02*
X93457200Y-56522400D01*
X88057200Y-51522400D02*
X93457200Y-51522400D01*
X88057200Y-57082400D02*
X88057200Y-56522400D01*
X86997200Y-61132400D02*
X97117200Y-61132400D01*
X88057200Y-52688400D02*
X88057200Y-51522400D01*
X88057200Y-60622400D02*
X93457200Y-60622400D01*
X86997200Y-61132400D02*
X86997200Y-51012400D01*
X97117200Y-61132400D02*
X97117200Y-51012400D01*
X95117200Y-61372400D02*
X97357200Y-61372400D01*
X88057200Y-55622400D02*
X93457200Y-55622400D01*
X93457200Y-55622400D02*
X93457200Y-51522400D01*
X88057200Y-60622400D02*
X88057200Y-60062400D01*
X93557200Y-61132400D02*
X93557200Y-51012400D01*
%TO.C,C2*%
X91390600Y-92134000D02*
X91390600Y-98874000D01*
X103630600Y-98874000D02*
X103630600Y-92134000D01*
X88550600Y-95504000D02*
X91390600Y-95504000D01*
X103630600Y-92134000D02*
X91390600Y-92134000D01*
X106470600Y-95504000D02*
X103630600Y-95504000D01*
X91390600Y-98874000D02*
X103630600Y-98874000D01*
%TO.C,C1*%
X103630600Y-80069000D02*
X91390600Y-80069000D01*
X91390600Y-86809000D02*
X103630600Y-86809000D01*
X103630600Y-86809000D02*
X103630600Y-80069000D01*
X106470600Y-83439000D02*
X103630600Y-83439000D01*
X88550600Y-83439000D02*
X91390600Y-83439000D01*
X91390600Y-80069000D02*
X91390600Y-86809000D01*
%TD*%
M02*
